<svg width="144" height="25" viewBox="0 0 144 25" fill="none" xmlns="http://www.w3.org/2000/svg">
<path d="M5.04688 7.09375L5.1875 9.04688C6.39583 7.53646 8.01562 6.78125 10.0469 6.78125C11.8385 6.78125 13.1719 7.30729 14.0469 8.35938C14.9219 9.41146 15.3698 10.9844 15.3906 13.0781V24H10.875V13.1875C10.875 12.2292 10.6667 11.5365 10.25 11.1094C9.83333 10.6719 9.14062 10.4531 8.17188 10.4531C6.90104 10.4531 5.94792 10.9948 5.3125 12.0781V24H0.796875V7.09375H5.04688Z" fill="#E1E1E6"/>
<path d="M26.6094 24.3125C24.1302 24.3125 22.1094 23.5521 20.5469 22.0312C18.9948 20.5104 18.2188 18.4844 18.2188 15.9531V15.5156C18.2188 13.8177 18.5469 12.3021 19.2031 10.9688C19.8594 9.625 20.7865 8.59375 21.9844 7.875C23.1927 7.14583 24.5677 6.78125 26.1094 6.78125C28.4219 6.78125 30.2396 7.51042 31.5625 8.96875C32.8958 10.4271 33.5625 12.4948 33.5625 15.1719V17.0156H22.7969C22.9427 18.1198 23.3802 19.0052 24.1094 19.6719C24.849 20.3385 25.7812 20.6719 26.9062 20.6719C28.6458 20.6719 30.0052 20.0417 30.9844 18.7812L33.2031 21.2656C32.526 22.224 31.6094 22.974 30.4531 23.5156C29.2969 24.0469 28.0156 24.3125 26.6094 24.3125ZM26.0938 10.4375C25.1979 10.4375 24.4688 10.7396 23.9062 11.3438C23.3542 11.9479 23 12.8125 22.8438 13.9375H29.125V13.5781C29.1042 12.5781 28.8333 11.8073 28.3125 11.2656C27.7917 10.7135 27.0521 10.4375 26.0938 10.4375Z" fill="#E1E1E6"/>
<path d="M50.8438 17.8594L53.0625 7.09375H57.4219L53.1094 24H49.3281L46.125 13.3594L42.9219 24H39.1562L34.8438 7.09375H39.2031L41.4062 17.8438L44.5 7.09375H47.7656L50.8438 17.8594Z" fill="#E1E1E6"/>
<path d="M68.8281 19.3281C68.8281 18.776 68.5521 18.3438 68 18.0312C67.4583 17.7083 66.5833 17.4219 65.375 17.1719C61.3542 16.3281 59.3438 14.6198 59.3438 12.0469C59.3438 10.5469 59.9635 9.29688 61.2031 8.29688C62.4531 7.28646 64.0833 6.78125 66.0938 6.78125C68.2396 6.78125 69.9531 7.28646 71.2344 8.29688C72.526 9.30729 73.1719 10.6198 73.1719 12.2344H68.6562C68.6562 11.5885 68.4479 11.0573 68.0312 10.6406C67.6146 10.2135 66.9635 10 66.0781 10C65.3177 10 64.7292 10.1719 64.3125 10.5156C63.8958 10.8594 63.6875 11.2969 63.6875 11.8281C63.6875 12.3281 63.9219 12.7344 64.3906 13.0469C64.8698 13.349 65.6719 13.6146 66.7969 13.8438C67.9219 14.0625 68.8698 14.3125 69.6406 14.5938C72.026 15.4688 73.2188 16.9844 73.2188 19.1406C73.2188 20.6823 72.5573 21.9323 71.2344 22.8906C69.9115 23.8385 68.2031 24.3125 66.1094 24.3125C64.6927 24.3125 63.4323 24.0625 62.3281 23.5625C61.2344 23.0521 60.375 22.3594 59.75 21.4844C59.125 20.599 58.8125 19.6458 58.8125 18.625H63.0938C63.1354 19.4271 63.4323 20.0417 63.9844 20.4688C64.5365 20.8958 65.276 21.1094 66.2031 21.1094C67.0677 21.1094 67.7188 20.9479 68.1562 20.625C68.6042 20.2917 68.8281 19.8594 68.8281 19.3281Z" fill="#E1E1E6"/>
<path d="M76.375 21.7812C76.375 21.0625 76.6146 20.4792 77.0938 20.0312C77.5833 19.5833 78.1927 19.3594 78.9219 19.3594C79.6615 19.3594 80.2708 19.5833 80.75 20.0312C81.2396 20.4792 81.4844 21.0625 81.4844 21.7812C81.4844 22.4896 81.2448 23.0677 80.7656 23.5156C80.2865 23.9531 79.6719 24.1719 78.9219 24.1719C78.1823 24.1719 77.5729 23.9531 77.0938 23.5156C76.6146 23.0677 76.375 22.4896 76.375 21.7812Z" fill="#E1E1E6"/>
<path d="M92.4844 20.6719C93.3177 20.6719 93.9948 20.4427 94.5156 19.9844C95.0365 19.526 95.3073 18.9167 95.3281 18.1562H99.5625C99.5521 19.3021 99.2396 20.3542 98.625 21.3125C98.0104 22.2604 97.1667 23 96.0938 23.5312C95.0312 24.0521 93.8542 24.3125 92.5625 24.3125C90.1458 24.3125 88.2396 23.5469 86.8438 22.0156C85.4479 20.474 84.75 18.349 84.75 15.6406V15.3438C84.75 12.7396 85.4427 10.6615 86.8281 9.10938C88.2135 7.55729 90.1146 6.78125 92.5312 6.78125C94.6458 6.78125 96.3385 7.38542 97.6094 8.59375C98.8906 9.79167 99.5417 11.3906 99.5625 13.3906H95.3281C95.3073 12.5156 95.0365 11.8073 94.5156 11.2656C93.9948 10.7135 93.3073 10.4375 92.4531 10.4375C91.401 10.4375 90.6042 10.8229 90.0625 11.5938C89.5312 12.3542 89.2656 13.5938 89.2656 15.3125V15.7812C89.2656 17.5208 89.5312 18.7708 90.0625 19.5312C90.5938 20.2917 91.401 20.6719 92.4844 20.6719Z" fill="#E1E1E6"/>
<path d="M106.906 24H102.375V0H106.906V24Z" fill="#E1E1E6"/>
<path d="M120.766 22.2812C119.651 23.6354 118.109 24.3125 116.141 24.3125C114.328 24.3125 112.943 23.7917 111.984 22.75C111.036 21.7083 110.552 20.1823 110.531 18.1719V7.09375H115.047V18.0156C115.047 19.776 115.849 20.6562 117.453 20.6562C118.984 20.6562 120.036 20.125 120.609 19.0625V7.09375H125.141V24H120.891L120.766 22.2812Z" fill="#E1E1E6"/>
<path d="M143.781 15.7031C143.781 18.4115 143.203 20.526 142.047 22.0469C140.891 23.5573 139.276 24.3125 137.203 24.3125C135.37 24.3125 133.906 23.6094 132.812 22.2031L132.609 24H128.547V0H133.062V8.60938C134.104 7.39062 135.474 6.78125 137.172 6.78125C139.234 6.78125 140.849 7.54167 142.016 9.0625C143.193 10.5729 143.781 12.7031 143.781 15.4531V15.7031ZM139.266 15.375C139.266 13.6667 138.995 12.4219 138.453 11.6406C137.911 10.849 137.104 10.4531 136.031 10.4531C134.594 10.4531 133.604 11.0417 133.062 12.2188V18.8906C133.615 20.0781 134.615 20.6719 136.062 20.6719C137.521 20.6719 138.479 19.9531 138.938 18.5156C139.156 17.8281 139.266 16.7812 139.266 15.375Z" fill="#E1E1E6"/>
</svg>
